<svg width="192" height="40" viewBox="0 0 192 40" fill="none" xmlns="http://www.w3.org/2000/svg">
<path d="M62.7321 32.1876C59.4604 32.1876 56.9028 31.3012 55.0593 29.5286C53.2157 27.756 52.2939 25.3447 52.2939 22.2947C52.2939 20.2875 52.7354 18.5149 53.6182 16.9769C54.527 15.4389 55.7863 14.2528 57.3962 13.4186C59.032 12.5844 60.9145 12.1674 63.0437 12.1674C64.4718 12.1674 65.848 12.3759 67.1722 12.793C68.4537 13.1889 69.5016 13.714 70.3152 14.3683C70.3931 14.4309 70.4205 14.537 70.3853 14.6309L68.8055 18.8606C68.749 19.0115 68.5623 19.0632 68.4318 18.9693C67.8346 18.5389 67.129 18.1876 66.3154 17.9153C65.4066 17.5764 64.5497 17.407 63.7448 17.407C62.3426 17.407 61.2651 17.798 60.5121 18.58C59.785 19.3621 59.4215 20.5482 59.4215 22.1383C59.4215 23.7284 59.785 24.9276 60.5121 25.7357C61.2651 26.5438 62.3426 26.9478 63.7448 26.9478C64.5497 26.9478 65.4066 26.7914 66.3154 26.4786C67.1278 26.184 67.8325 25.8106 68.4292 25.3585C68.5595 25.2598 68.7509 25.3106 68.8078 25.4642L70.3853 29.7222C70.4203 29.817 70.392 29.9239 70.3129 29.9862C69.4501 30.6659 68.3643 31.2043 67.0554 31.601C65.7052 31.992 64.2641 32.1876 62.7321 32.1876Z" fill="white"/>
<path d="M84.5887 12.5601C86.7641 12.5601 88.4864 13.2995 89.7554 14.7782C91.047 16.2342 91.6929 18.2135 91.6929 20.716V31.6381C91.6929 31.7689 91.5871 31.875 91.4568 31.875H85.2666C85.1363 31.875 85.0306 31.7689 85.0306 31.6381V21.6033C85.0306 20.5113 84.7473 19.6581 84.1808 19.0439C83.6143 18.4069 82.8551 18.0884 81.9034 18.0884C80.9063 18.0884 80.1245 18.4069 79.558 19.0439C78.9915 19.6581 78.7082 20.5113 78.7082 21.6033V31.6381C78.7082 31.7689 78.6024 31.875 78.4721 31.875H72.2819C72.1516 31.875 72.0459 31.7689 72.0459 31.6381V6.85929C72.0459 6.72841 72.1516 6.62231 72.2819 6.62231H78.4721C78.6024 6.62231 78.7082 6.72841 78.7082 6.85929V14.6947C78.7082 14.9277 79.0233 15.0315 79.177 14.8571C79.6975 14.267 80.3343 13.7744 81.0876 13.3791C82.1073 12.8331 83.2744 12.5601 84.5887 12.5601Z" fill="white"/>
<path d="M93.2412 22.2846C93.2412 20.3054 93.5925 18.5764 94.2949 17.0976C95.0201 15.6189 95.9945 14.4814 97.2182 13.6851C98.4645 12.8889 99.8469 12.4907 101.365 12.4907C102.679 12.4907 103.813 12.7523 104.764 13.2756C105.446 13.6505 106.017 14.1188 106.478 14.6805C106.631 14.8668 106.974 14.7643 106.974 14.523V12.9666C106.974 12.8357 107.079 12.7296 107.21 12.7296H113.4C113.53 12.7296 113.636 12.8357 113.636 12.9666V31.6369C113.636 31.7678 113.53 31.8739 113.4 31.8739H107.21C107.079 31.8739 106.974 31.7678 106.974 31.6369V30.0805C106.974 29.8392 106.63 29.7361 106.477 29.9217C106.011 30.484 105.429 30.9528 104.73 31.3279C103.779 31.8512 102.657 32.1128 101.365 32.1128C99.8469 32.1128 98.4645 31.7147 97.2182 30.9184C95.9945 30.1222 95.0201 28.9847 94.2949 27.5058C93.5925 26.0043 93.2412 24.2639 93.2412 22.2846ZM106.974 22.2846C106.974 21.0561 106.634 20.0893 105.954 19.384C105.297 18.6788 104.481 18.3261 103.507 18.3261C102.51 18.3261 101.682 18.6788 101.025 19.384C100.368 20.0665 100.039 21.0334 100.039 22.2846C100.039 23.5132 100.368 24.4914 101.025 25.2194C101.682 25.9247 102.51 26.2773 103.507 26.2773C104.481 26.2773 105.297 25.9247 105.954 25.2194C106.634 24.5142 106.974 23.5359 106.974 22.2846Z" fill="white"/>
<path d="M119.777 10.9558C118.599 10.9558 117.647 10.6373 116.922 10.0003C116.219 9.34052 115.868 8.52152 115.868 7.54326C115.868 6.54226 116.219 5.71188 116.922 5.05213C117.647 4.39238 118.599 4.0625 119.777 4.0625C120.933 4.0625 121.862 4.39238 122.564 5.05213C123.29 5.71188 123.652 6.54226 123.652 7.54326C123.652 8.52152 123.29 9.34052 122.564 10.0003C121.862 10.6373 120.933 10.9558 119.777 10.9558ZM122.838 12.7303C122.969 12.7303 123.074 12.8364 123.074 12.9673V31.6376C123.074 31.7684 122.969 31.8746 122.838 31.8746H116.648C116.518 31.8746 116.412 31.7684 116.412 31.6376V12.9673C116.412 12.8364 116.518 12.7303 116.648 12.7303H122.838Z" fill="white"/>
<path d="M138.324 12.5597C140.523 12.5597 142.267 13.2991 143.559 14.7778C144.851 16.2338 145.497 18.2131 145.497 20.7156V31.6377C145.497 31.7685 145.391 31.8746 145.261 31.8746H139.07C138.94 31.8746 138.834 31.7685 138.834 31.6377V21.6029C138.834 20.5109 138.551 19.6577 137.985 19.0435C137.418 18.4065 136.659 18.088 135.707 18.088C134.71 18.088 133.928 18.4065 133.362 19.0435C132.795 19.6577 132.512 20.5109 132.512 21.6029V31.6377C132.512 31.7685 132.406 31.8746 132.276 31.8746H126.086C125.955 31.8746 125.85 31.7685 125.85 31.6377V12.9673C125.85 12.8364 125.955 12.7303 126.086 12.7303H132.276C132.406 12.7303 132.512 12.8364 132.512 12.9673V14.6943C132.512 14.9273 132.827 15.0311 132.981 14.8566C133.501 14.2666 134.138 13.774 134.891 13.3787C135.888 12.8327 137.033 12.5597 138.324 12.5597Z" fill="white"/>
<path d="M155.789 32.1816C153.979 32.1816 152.309 31.9896 150.78 31.6057C149.322 31.2398 148.084 30.7114 147.067 30.0201C146.978 29.9599 146.943 29.8464 146.981 29.7457L148.536 25.5485C148.588 25.4063 148.759 25.3498 148.887 25.4294C149.846 26.0223 150.923 26.507 152.118 26.8836C153.418 27.2675 154.667 27.4594 155.866 27.4594C156.605 27.4594 157.179 27.357 157.586 27.1523C157.994 26.9219 158.198 26.6148 158.198 26.2309C158.198 25.8982 158.045 25.6423 157.739 25.4631C157.459 25.2839 156.873 25.092 155.98 24.8872L152.959 24.1962C151.047 23.7611 149.671 23.1213 148.829 22.2767C147.988 21.4321 147.567 20.2291 147.567 18.6679C147.567 17.465 147.924 16.4029 148.638 15.4815C149.352 14.5345 150.346 13.8051 151.621 13.2932C152.921 12.7813 154.387 12.5254 156.019 12.5254C157.37 12.5254 158.708 12.7301 160.034 13.1396C161.319 13.5047 162.488 14.0201 163.542 14.686C163.637 14.746 163.675 14.8658 163.634 14.9706L162.05 18.9795C161.996 19.117 161.831 19.1714 161.704 19.0953C160.763 18.5282 159.811 18.0914 158.848 17.7849C157.829 17.4266 156.86 17.2475 155.942 17.2475C155.203 17.2475 154.629 17.3626 154.221 17.593C153.813 17.8233 153.609 18.156 153.609 18.5911C153.609 18.8471 153.737 19.0646 153.992 19.2438C154.247 19.3973 154.693 19.5509 155.33 19.7045L158.504 20.4339C160.493 20.869 161.933 21.5472 162.825 22.4686C163.718 23.3644 164.164 24.5929 164.164 26.1541C164.164 28.0226 163.412 29.4942 161.908 30.5692C160.429 31.6441 158.389 32.1816 155.789 32.1816Z" fill="white"/>
<path d="M177.123 18.0553C177.123 18.1862 177.018 18.2923 176.887 18.2923H174.368C174.238 18.2923 174.132 18.3984 174.132 18.5293V31.6372C174.132 31.768 174.027 31.8742 173.896 31.8742H167.672C167.542 31.8742 167.436 31.768 167.436 31.6372V18.5293C167.436 18.3984 167.33 18.2923 167.2 18.2923H165.598C165.468 18.2923 165.362 18.1862 165.362 18.0553V12.9669C165.362 12.836 165.468 12.7299 165.598 12.7299H167.266C167.36 12.7299 167.436 12.6535 167.436 12.5593C167.436 10.1022 168.15 8.22536 169.577 6.9286C171.028 5.60909 173.101 4.94934 175.798 4.94934C176.219 4.94934 176.565 4.95617 176.837 4.96982C176.96 4.97601 177.055 5.07909 177.055 5.20292V10.4139C177.055 10.5565 176.931 10.6674 176.789 10.6596C176.651 10.652 176.491 10.6482 176.307 10.6482C175.582 10.6482 175.05 10.8189 174.71 11.1601C174.411 11.4407 174.225 11.8802 174.154 12.4786C174.138 12.6143 174.247 12.7299 174.383 12.7299H176.887C177.018 12.7299 177.123 12.836 177.123 12.9669V18.0553Z" fill="white"/>
<path d="M185.848 15.3453C185.848 15.578 186.156 15.6777 186.302 15.4969C186.954 14.6886 187.709 14.0279 188.567 13.5148C189.563 12.9189 190.629 12.6017 191.764 12.5632C191.894 12.5588 192 12.6654 192 12.7962V19.4544C192 19.5853 191.894 19.6914 191.764 19.6914H190.131C188.68 19.6914 187.604 19.9758 186.902 20.5446C186.199 21.1133 185.848 22.1029 185.848 23.5134V31.6372C185.848 31.768 185.742 31.8742 185.612 31.8742H179.422C179.291 31.8742 179.186 31.768 179.186 31.6372V12.9669C179.186 12.836 179.291 12.7299 179.422 12.7299H185.612C185.742 12.7299 185.848 12.836 185.848 12.9669V15.3453Z" fill="white"/>
<path fill-rule="evenodd" clip-rule="evenodd" d="M13.9458 0H26.0542C30.07 0 32.0778 0 34.2391 0.683333C36.5989 1.54222 38.4578 3.40111 39.3167 5.76089C40 7.92222 40 9.93 40 13.9456V26.0542C40 30.0698 40 32.0776 39.3167 34.2391C38.4578 36.5987 36.5989 38.4576 34.2391 39.3164C32.0778 40 30.07 40 26.0542 40H13.9458C9.93022 40 7.92244 40 5.76111 39.3164C3.40133 38.4576 1.54244 36.5987 0.683556 34.2391C0 32.0776 0 30.0698 0 26.0542V13.9456C0 9.93 0 7.92222 0.683556 5.76089C1.54244 3.40111 3.40133 1.54222 5.76111 0.683333C7.92244 0 9.93022 0 13.9458 0ZM17.6505 5.9375L8.92428 16.83C8.76921 16.9711 8.67188 17.1745 8.67188 17.4006C8.67188 17.8265 9.01709 18.1717 9.44294 18.1717C9.58097 18.1717 9.71053 18.1354 9.82261 18.0719C9.71054 18.1354 9.58098 18.1717 9.44294 18.1717H17.6505V12.7572H17.6505V18.1715H25.8751V18.1717C26.5862 18.1717 27.2903 18.0317 27.9472 17.7596C28.6041 17.4875 29.201 17.0886 29.7038 16.5859C30.2066 16.0831 30.6055 15.4862 30.8776 14.8292C31.1497 14.1723 31.2897 13.4682 31.2897 12.7572H25.8752V12.7569H19.6731C18.5555 12.7391 17.6546 11.8296 17.6505 10.7088V5.9375ZM31.0375 23.17L22.3113 34.0625V21.8283H30.5188C30.3161 21.8283 30.1317 21.9065 29.9941 22.0344C30.1317 21.9065 30.3161 21.8283 30.5188 21.8283C30.9447 21.8283 31.2899 22.1735 31.2899 22.5994C31.2899 22.8255 31.1925 23.0289 31.0375 23.17ZM14.0865 27.2431H20.2771C21.4024 27.2549 22.3111 28.1708 22.3112 29.2989V27.2431H22.3112V21.8285H14.0866V21.8283C13.3756 21.8283 12.6715 21.9683 12.0145 22.2404C11.3576 22.5125 10.7607 22.9114 10.2579 23.4141C9.75513 23.9169 9.35629 24.5138 9.08419 25.1708C8.81208 25.8277 8.67203 26.5318 8.67203 27.2428H14.0865V27.2431Z" fill="white"/>
</svg>
