<svg width="1440" height="1000" viewBox="0 0 1440 1000" fill="none" xmlns="http://www.w3.org/2000/svg">
<rect width="1440" height="1000" fill="white"/>
<path opacity="0.1" d="M1320 564.552C1319.98 604.222 1311.14 643.415 1294.1 679.426C1277.06 715.437 1252.23 747.408 1221.31 773.134C1190.4 798.861 1154.13 817.729 1115.03 828.438C1075.92 839.146 1034.9 841.44 994.794 835.161H549.956C532.774 837.464 515.452 838.619 498.11 838.619C329.112 838.619 185.986 730.322 137.575 580.91C125.891 544.811 119.963 507.17 120 469.309C120 265.34 289.291 100 498.11 100C666.29 100 808.798 207.223 857.91 355.56C908.569 313.46 972.94 290.386 1039.46 290.486C1194.38 290.486 1320 413.187 1320 564.552Z" fill="#1E0E62"/>
<path opacity="0.1" d="M1212.21 780.481C1181.77 803.701 1146.74 820.54 1109.34 829.948C1071.93 839.357 1032.94 841.131 994.794 835.161H549.955C532.774 837.464 515.452 838.619 498.109 838.619C329.112 838.619 185.986 730.322 137.575 580.91C173.783 505.32 266.834 451.529 375.931 451.529C482.241 451.529 573.312 502.619 611.395 575.182C630.123 571.855 649.119 570.188 668.154 570.199C778.339 570.199 872.155 625.084 907.578 701.872C936.92 693.185 967.422 688.803 998.083 688.87C1087.95 688.87 1166.93 725.371 1212.21 780.481Z" fill="#1E0E62"/>
<path opacity="0.1" d="M449.772 238.875C443.857 237.779 437.741 238.43 432.207 240.747C428.885 242.185 425.289 242.924 421.654 242.916C418.02 242.907 414.428 242.15 411.113 240.696C407.19 239.017 402.941 238.189 398.659 238.271C394.377 238.352 390.163 239.34 386.31 241.166C384.11 242.307 381.658 242.908 379.167 242.916C369.112 242.916 360.743 233.023 359.005 219.969C361.012 218.533 362.719 216.734 364.032 214.67C369.929 205.391 379.062 199.437 389.316 199.437C399.57 199.437 408.588 205.32 414.454 214.506C416.214 217.277 418.676 219.558 421.603 221.128C424.529 222.698 427.821 223.504 431.16 223.468H431.422C439.413 223.468 446.347 229.729 449.772 238.875Z" fill="#1E0E62"/>
<path opacity="0.1" d="M480.356 197.903L464.1 207.979L473.967 190.445C471.168 188.269 467.708 187.063 464.132 187.018H463.87C462.741 187.037 461.612 186.959 460.497 186.782L455.009 190.189L457.376 185.995C453.47 184.663 450.096 182.156 447.74 178.834L437.874 184.972L444.106 173.913C438.334 167.151 430.563 162.997 422.016 162.997C411.762 162.997 402.629 168.962 396.732 178.24C394.988 181.026 392.517 183.309 389.572 184.855C386.628 186.401 383.315 187.155 379.974 187.038H379.419C368.096 187.038 358.921 199.58 358.921 215.038C358.921 230.496 368.075 243.028 379.439 243.028C381.929 243.02 384.38 242.423 386.583 241.289C390.434 239.458 394.647 238.467 398.93 238.384C403.212 238.301 407.462 239.128 411.385 240.808C414.7 242.263 418.292 243.019 421.927 243.028C425.561 243.037 429.157 242.298 432.48 240.859C436.373 239.211 440.584 238.4 444.827 238.479C449.07 238.559 453.246 239.527 457.072 241.32C459.251 242.433 461.672 243.019 464.132 243.028C475.454 243.028 484.629 230.496 484.629 215.028C484.699 209.06 483.229 203.17 480.356 197.903Z" fill="#1E0E62"/>
<path opacity="0.1" d="M776.559 330.414C772.418 329.652 768.138 330.108 764.263 331.724C761.94 332.738 759.423 333.263 756.879 333.263C754.334 333.263 751.817 332.738 749.494 331.724C746.748 330.549 743.773 329.97 740.775 330.026C737.777 330.083 734.827 330.774 732.129 332.051C730.589 332.849 728.875 333.27 727.133 333.279C720.094 333.279 714.239 326.353 713.024 317.207C714.43 316.205 715.625 314.948 716.543 313.504C720.67 307.008 727.017 302.844 734.234 302.844C741.45 302.844 747.735 306.936 751.861 313.391C753.096 315.328 754.819 316.922 756.866 318.02C758.913 319.119 761.215 319.684 763.55 319.662H763.739C769.29 319.632 774.14 324.02 776.559 330.414Z" fill="#1E0E62"/>
<path opacity="0.1" d="M797.947 301.739L786.572 308.788L793.474 296.512C791.521 294.981 789.098 294.135 786.593 294.108H786.415C785.626 294.125 784.837 294.071 784.058 293.944L780.193 296.327L781.848 293.391C779.117 292.458 776.757 290.708 775.103 288.389L768.18 292.675L772.537 284.931C768.505 280.205 763.11 277.299 757.077 277.299C749.903 277.299 743.461 281.463 739.377 287.959C738.152 289.897 736.425 291.486 734.371 292.563C732.317 293.641 730.008 294.17 727.677 294.097H727.331C719.413 294.097 712.982 302.875 712.982 313.698C712.982 324.522 719.413 333.299 727.331 333.299C729.075 333.296 730.79 332.874 732.328 332.072C735.026 330.794 737.976 330.103 740.974 330.047C743.972 329.99 746.947 330.569 749.693 331.744C752.03 332.763 754.56 333.293 757.119 333.299C759.645 333.296 762.143 332.777 764.451 331.775C767.176 330.622 770.123 330.055 773.092 330.112C776.061 330.168 778.983 330.847 781.66 332.102C783.185 332.883 784.881 333.294 786.604 333.299C794.532 333.299 800.953 324.522 800.953 313.698C800.991 309.529 799.958 305.417 797.947 301.739Z" fill="#1E0E62"/>
<path opacity="0.1" d="M550.972 392.818C555.113 392.056 559.392 392.512 563.268 394.128C565.589 395.143 568.104 395.668 570.647 395.668C573.19 395.668 575.705 395.143 578.026 394.128C580.767 392.954 583.735 392.374 586.727 392.427C589.72 392.48 592.665 393.165 595.36 394.435C596.9 395.231 598.614 395.653 600.356 395.662C607.395 395.662 613.26 388.737 614.475 379.591C613.067 378.591 611.871 377.334 610.956 375.887C606.829 369.391 600.429 365.228 593.255 365.228C586.08 365.228 579.764 369.32 575.638 375.775C574.401 377.711 572.676 379.304 570.627 380.401C568.578 381.497 566.274 382.06 563.938 382.036H563.76C558.188 382.036 553.328 386.425 550.972 392.818Z" fill="#1E0E62"/>
<path opacity="0.1" d="M529.521 364.143L540.895 371.192L533.983 358.916C535.937 357.386 538.36 356.54 540.864 356.512H541.052C541.841 356.529 542.631 356.475 543.409 356.348L547.263 358.731L545.609 355.795C548.343 354.863 550.707 353.113 552.364 350.793L559.267 355.069L554.909 347.376C558.952 342.65 564.388 339.744 570.379 339.744C577.554 339.744 583.996 343.908 588.08 350.404C589.304 352.343 591.031 353.932 593.085 355.01C595.14 356.087 597.449 356.616 599.78 356.542H600.157C608.086 356.542 614.506 365.32 614.506 376.143C614.506 386.967 608.086 395.744 600.157 395.744C598.414 395.738 596.699 395.317 595.161 394.517C592.463 393.239 589.513 392.548 586.515 392.492C583.517 392.435 580.542 393.014 577.795 394.189C575.462 395.208 572.935 395.738 570.379 395.744C567.853 395.743 565.355 395.224 563.048 394.22C560.321 393.067 557.372 392.5 554.402 392.556C551.431 392.613 548.507 393.292 545.829 394.547C544.303 395.329 542.607 395.74 540.885 395.744C532.967 395.744 526.536 386.967 526.536 376.143C526.484 371.962 527.51 367.835 529.521 364.143Z" fill="#1E0E62"/>
<path d="M1113.59 408.066C1115.44 416.497 1110.69 425.87 1102.72 429.544C1099.38 431.079 1095.64 431.684 1092.37 433.379C1085.3 437.063 1081.92 445.003 1079.08 452.326C1075.81 460.75 1072.49 469.662 1073.99 478.545C1074.98 484.206 1077.83 489.387 1079.23 494.968C1080.4 499.639 1080.52 504.503 1079.57 509.226C1079.07 511.733 1078.19 514.307 1076.25 516.019C1073.45 518.495 1069.31 518.552 1065.55 518.885C1057.59 519.668 1049.93 522.285 1043.2 526.519C1036.47 530.754 1030.86 536.488 1026.84 543.248" stroke="url(#paint0_linear)" stroke-width="2" stroke-miterlimit="10"/>
<path d="M1112.79 407.999C1114.65 416.43 1109.89 425.803 1101.92 429.476C1098.59 431.012 1094.84 431.616 1091.58 433.311C1084.5 436.996 1081.13 444.936 1078.29 452.258C1075.02 460.682 1071.69 469.595 1073.2 478.477C1074.19 484.138 1077.04 489.319 1078.44 494.9C1079.61 499.572 1079.72 504.436 1078.78 509.159C1078.28 511.665 1077.39 514.239 1075.46 515.951C1072.66 518.427 1068.52 518.484 1064.76 518.817C1056.8 519.6 1049.14 522.217 1042.41 526.452C1035.68 530.686 1030.07 536.421 1026.05 543.18" stroke="#535461" stroke-width="2" stroke-miterlimit="10"/>
<path d="M1020.28 338.285C1025.88 347.502 1031.67 357.463 1031.26 368.183C1030.63 384.681 1016.01 396.969 1008.59 411.816C1005.39 418.36 1003.56 425.469 1003.24 432.716C1002.91 439.963 1004.08 447.201 1006.68 453.996C1009.1 460.169 1012.73 466.397 1011.63 472.91C1010.96 476.886 1008.59 480.344 1006.61 483.884C1001.73 492.754 999.068 502.624 998.831 512.69C998.593 522.756 1000.79 532.735 1005.24 541.818" stroke="url(#paint1_linear)" stroke-width="2" stroke-miterlimit="10"/>
<path d="M1019.49 338.217C1025.09 347.434 1030.88 357.396 1030.47 368.116C1029.84 384.613 1015.22 396.901 1007.8 411.749C1004.59 418.292 1002.77 425.4 1002.44 432.647C1002.11 439.895 1003.28 447.132 1005.88 453.928C1008.31 460.1 1011.93 466.329 1010.83 472.841C1010.17 476.818 1007.79 480.276 1005.81 483.816C1000.94 492.685 998.271 502.556 998.033 512.622C997.795 522.687 999.989 532.667 1004.44 541.75" stroke="#535461" stroke-width="2" stroke-miterlimit="10"/>
<path d="M923.625 408.859L918.339 433.165C917.641 436.397 916.99 439.932 918.515 442.865C919.98 445.649 923.055 447.179 925.389 449.344C932.955 456.436 931.117 468.659 927.451 478.268C923.786 487.88 918.755 498.11 921.814 507.92C923.074 511.968 925.606 515.525 927.434 519.322C930.481 525.906 931.261 533.272 929.661 540.324" stroke="url(#paint2_linear)" stroke-width="2" stroke-miterlimit="10"/>
<path d="M922.885 408.796L917.601 433.103C916.901 436.334 916.249 439.869 917.774 442.803C919.239 445.586 922.318 447.116 924.649 449.281C932.217 456.374 930.376 468.596 926.711 478.205C923.048 487.818 918.015 498.048 921.074 507.857C922.337 511.906 924.866 515.462 926.694 519.259C929.74 525.843 930.521 533.209 928.921 540.261" stroke="#535461" stroke-width="2" stroke-miterlimit="10"/>
<path d="M1101.23 412.595L1118.62 414.082L1116.5 403.625L1106.06 402.733L1101.23 412.595Z" fill="#F55F44"/>
<path d="M1047.79 299.733C1044.3 338.677 1071.51 398.5 1111.39 401.907C1151.26 405.314 1188.7 350.987 1192.18 312.072C1193.86 293.369 1187.86 274.783 1175.5 260.402C1163.15 246.02 1145.45 237.022 1126.3 235.385C1107.16 233.749 1088.13 239.609 1073.4 251.677C1058.68 263.744 1049.46 281.031 1047.79 299.733Z" fill="#E46D58"/>
<path d="M1106.02 403.16L1116.46 404.052L1122.85 401.176L1100.23 399.243L1106.02 403.16Z" fill="#535461"/>
<path d="M1012.37 342.538L1029.76 344.025L1027.63 333.568L1017.19 332.676L1012.37 342.538Z" fill="#4D8AF0"/>
<path d="M958.928 229.668C955.44 268.613 982.653 328.436 1022.52 331.843C1062.4 335.25 1099.85 280.96 1103.33 242.008C1105.01 223.306 1099.01 204.72 1086.66 190.338C1074.3 175.957 1056.6 166.958 1037.46 165.322C1018.31 163.686 999.279 169.546 984.553 181.613C969.829 193.681 960.616 210.967 958.94 229.669L958.928 229.668Z" fill="#6963AF"/>
<path d="M1017.16 333.102L1027.59 333.994L1033.99 331.111L1011.37 329.178L1017.16 333.102Z" fill="#535461"/>
<path opacity="0.1" d="M1062.13 183.268C1062.13 183.268 1091.13 202.014 1092.56 234.658L1062.13 183.268Z" fill="white"/>
<path d="M911.661 413.575L929.066 415.062L926.929 404.612L916.497 403.72L911.661 413.575Z" fill="#3AD29F"/>
<path d="M858.222 300.712C854.734 339.656 881.948 399.479 921.821 402.886C961.692 406.293 999.131 351.966 1002.62 313.051C1004.29 294.348 998.292 275.762 985.937 261.381C973.583 246.999 955.883 238.001 936.737 236.365C917.589 234.728 898.558 240.588 883.835 252.656C869.111 264.723 859.898 282.01 858.222 300.712Z" fill="#4BCCA1"/>
<path d="M916.46 404.14L926.892 405.031L933.286 402.155L910.674 400.223L916.46 404.14Z" fill="#535461"/>
<path opacity="0.1" d="M961.432 254.313C961.432 254.313 990.431 273.059 991.868 305.702L961.432 254.313Z" fill="white"/>
<path d="M790.073 601.024V592.149C790.071 585.616 787.412 579.352 782.682 574.733C777.952 570.114 771.537 567.519 764.849 567.519H406.025C399.337 567.519 392.922 570.114 388.192 574.733C383.461 579.352 380.803 585.616 380.801 592.149V608.512L790.073 601.024Z" fill="#111111"/>
<path opacity="0.1" d="M799.759 609.734V856.249C799.759 859.048 799.194 861.82 798.097 864.407C797 866.993 795.392 869.343 793.365 871.323C791.337 873.302 788.931 874.872 786.282 875.943C783.634 877.013 780.795 877.564 777.929 877.563H402.638C396.852 877.561 391.303 875.315 387.212 871.318C383.121 867.321 380.823 861.9 380.823 856.249V584.882C391.577 588.784 391.577 588.784 402.638 588.455H777.929C783.711 588.455 789.257 590.696 793.349 594.685C797.442 598.674 799.747 604.087 799.759 609.734Z" fill="black"/>
<path d="M799.759 612.871V859.385C799.757 865.039 797.456 870.461 793.362 874.458C789.269 878.455 783.717 880.7 777.929 880.7H402.638C396.852 880.698 391.303 878.452 387.212 874.455C383.121 870.458 380.823 865.037 380.823 859.385V588.012C391.577 591.907 391.577 591.907 402.638 591.585H777.929C783.712 591.585 789.259 593.826 793.352 597.817C797.445 601.808 799.749 607.222 799.759 612.871Z" fill="#555187"/>
<path opacity="0.1" d="M798.69 704.01V782.844H720.413C709.804 782.705 699.678 778.491 692.226 771.114C684.775 763.737 680.597 753.79 680.597 743.427C680.597 733.064 684.775 723.118 692.226 715.741C699.678 708.364 709.804 704.149 720.413 704.01H798.69Z" fill="black"/>
<path d="M799.758 701.909V780.758H721.481C710.872 780.618 700.746 776.404 693.294 769.027C685.842 761.65 681.664 751.704 681.664 741.341C681.664 730.977 685.842 721.031 693.294 713.654C700.746 706.277 710.872 702.063 721.481 701.923L799.758 701.909Z" fill="#454545"/>
<path opacity="0.1" d="M725.235 758.8C733.925 758.8 740.971 751.919 740.971 743.431C740.971 734.942 733.925 728.061 725.235 728.061C716.544 728.061 709.499 734.942 709.499 743.431C709.499 751.919 716.544 758.8 725.235 758.8Z" fill="black"/>
<path d="M726.303 756.714C734.993 756.714 742.038 749.833 742.038 741.344C742.038 732.856 734.993 725.974 726.303 725.974C717.612 725.974 710.567 732.856 710.567 741.344C710.567 749.833 717.612 756.714 726.303 756.714Z" fill="#B3B1C6"/>
<path d="M649.981 729.156C649.981 771.531 614.811 805.882 571.427 805.882C528.043 805.882 492.872 771.531 492.872 729.156C492.872 686.781 528.043 652.43 571.427 652.43C614.811 652.43 649.981 686.781 649.981 729.156ZM605.13 718.225C606.689 708.013 598.722 702.527 587.851 698.865L591.365 685.025L582.704 682.938L579.265 696.404C577.001 695.852 574.673 695.362 572.355 694.819L575.816 681.259L567.198 679.173L563.664 692.994C561.784 692.576 559.946 692.16 558.164 691.731L546.278 688.832L543.981 697.823C543.981 697.823 550.39 699.252 550.239 699.347C553.732 700.201 554.361 702.475 554.255 704.238L550.23 719.998C550.534 720.073 550.833 720.166 551.126 720.281L550.219 720.061L544.58 742.132C544.329 742.911 543.772 743.56 543.03 743.936C542.29 744.31 541.424 744.383 540.629 744.134C540.715 744.259 534.36 742.611 534.36 742.611L530.088 752.249L541.301 754.983C543.436 755.494 545.434 756.025 547.442 756.525L543.875 770.513L552.482 772.6L556.018 758.758C558.302 759.362 560.591 759.943 562.883 760.499L559.36 774.279L567.977 776.365L571.544 762.398C586.239 765.111 597.302 764.014 601.948 751.039C605.697 740.609 601.767 734.56 594.023 730.627C599.651 729.355 603.902 725.746 605.033 718.267L605.13 718.225ZM585.438 745.199C582.778 755.629 564.752 749.997 558.912 748.588L563.642 730.054C569.461 731.482 588.203 734.298 585.417 745.199H585.438ZM588.108 718.079C585.672 727.592 570.679 722.752 565.81 721.574L570.081 704.77C574.94 705.949 590.617 708.159 588.043 718.079H588.108Z" fill="#F7931A"/>
<path d="M302.884 729.043C310.894 734.288 323.042 731.79 323.042 731.79C323.042 731.79 341.375 723.308 346.804 723.308C352.233 723.308 365.404 718.063 365.404 718.063L364.963 714.531L363.649 703.881C372.008 710.239 381.284 708.048 385.853 707.582C390.759 707.083 416.985 691.856 419.497 690.857C420.455 690.304 421.255 689.523 421.822 688.586C423.51 686.055 424.991 683.397 426.251 680.638C427.902 679.23 429.099 678.094 429.006 677.844C429.369 676.389 429.911 674.982 430.622 673.655C433.438 673.258 436.143 672.308 438.573 670.861C439.408 670.201 440.075 669.362 440.522 668.408C440.97 667.455 441.186 666.414 441.154 665.366C441.154 665.366 466.73 640.158 463.37 629.678C460.01 619.198 471.636 618.948 471.636 618.948C471.636 618.948 489.469 611.465 491.945 606.969C493.479 604.21 506.848 598.146 516.904 593.877L518.148 593.355C522.054 601.723 541.887 595.285 545.793 591.742C549.92 588.007 562.068 586.258 562.068 586.258C562.068 586.258 562.579 537.342 566.462 531.097C568.299 528.145 568.787 518.482 568.694 509.16C568.694 508.819 568.694 508.49 568.694 508.161C574.123 507.128 587.039 504.754 593.037 504.153C596.839 503.778 600.791 501.462 603.837 499.213L604.186 499.656C605.235 500.076 606.368 500.259 607.499 500.19C608.497 500.29 609.502 500.104 610.394 499.656C612.719 498.407 621.24 495.909 624.344 494.66C627.448 493.411 623.821 484.441 621.496 482.681C619.171 480.921 617.625 478.696 618.915 477.696C620.206 476.697 615.811 474.199 613.23 473.699C610.65 473.2 602.896 469.703 602.896 469.703C602.896 469.703 600.059 463.969 595.409 463.969C590.759 463.969 584.551 459.427 584.551 459.427C584.295 457.428 579.389 457.156 579.389 457.156C579.389 457.156 560.789 443.19 557.685 444.927C554.581 446.664 546.06 442.19 546.06 442.19C546.06 442.19 535.597 443.326 533.144 441.452C533.126 440.837 532.906 440.244 532.517 439.76C531.959 438.069 529.262 435.752 526.704 433.822C526.896 432.631 526.993 431.428 526.995 430.223C526.995 429.7 526.995 429.167 526.937 428.656C526.942 428.569 526.942 428.481 526.937 428.394C527.064 427.259 527.181 426.055 527.309 424.886C527.331 423.73 527.638 422.597 528.204 421.582C528.645 420.923 529.285 420.446 529.773 419.776C529.888 419.628 529.993 419.473 530.087 419.311L530.168 419.174C530.238 419.05 530.296 418.925 530.354 418.8C530.378 418.76 530.398 418.719 530.413 418.675C530.563 418.332 530.676 417.974 530.75 417.608C530.75 417.608 530.75 417.608 530.75 417.517C530.75 417.426 530.808 417.187 530.819 417.017V416.949C530.927 415.498 530.729 414.041 530.238 412.668C529.459 410.307 528.25 408.036 528.122 405.572C528.179 404.352 528.136 403.129 527.994 401.915C527.367 399.19 524.507 397.453 521.728 396.318C517.915 394.751 515.986 393.047 512.917 390.72C510.313 388.744 506.011 389.743 502.721 389.948C495.235 390.413 487.829 392.616 480.785 394.898C478.001 395.628 475.393 396.89 473.112 398.611C471.676 399.808 470.69 401.438 470.31 403.244C470.233 403.66 470.202 404.082 470.217 404.504C470.217 404.504 470.217 404.584 470.217 404.618C470.217 404.652 470.217 404.936 470.275 405.095C470.269 405.148 470.269 405.201 470.275 405.254C470.311 405.449 470.357 405.642 470.415 405.833C470.705 406.753 471.263 407.581 471.577 408.501C471.646 408.702 471.704 408.907 471.752 409.114V409.182L471.856 409.784C472.135 412.055 471.275 414.417 470.903 416.733C470.847 417.064 470.808 417.398 470.787 417.732C470.675 419.071 470.793 420.418 471.136 421.718C471.136 421.877 471.24 422.025 471.287 422.183L471.356 422.388C471.356 422.524 471.461 422.649 471.508 422.785C471.551 422.87 471.59 422.957 471.624 423.046C471.624 423.16 471.728 423.274 471.787 423.387C471.845 423.501 471.891 423.58 471.938 423.671C471.984 423.762 472.054 423.875 472.124 423.978L472.31 424.273L472.496 424.545L472.728 424.829C472.798 424.909 472.856 424.999 472.938 425.079L473.205 425.351L473.414 425.567L473.74 425.828L473.961 426.01L474.356 426.271L474.553 426.396C474.762 426.521 474.979 426.631 475.204 426.725C476.692 427.395 478.552 427.622 479.459 428.894C479.662 429.2 479.808 429.538 479.889 429.893V430.37C479.891 431.102 479.934 431.834 480.017 432.562C480.015 432.941 480.035 433.32 480.075 433.697C480.125 433.99 480.211 434.276 480.331 434.549C481.382 439.575 484.143 444.105 488.167 447.402C488.248 447.788 488.329 448.242 488.434 448.753C486.161 450.43 483.62 451.727 480.912 452.591C474.693 454.578 465.951 462.72 465.951 462.72C465.951 462.72 461.591 493.377 460.545 497.158C459.499 500.939 458.72 515.382 458.72 515.382C458.72 515.382 457.685 521.366 456.139 524.364C455.046 526.476 455.244 535.548 458.301 541.055C457.801 542.138 457.161 543.153 456.395 544.075C450.199 551.07 431.598 550.82 425.39 550.82C419.682 550.82 417.915 554.227 417.683 554.738C406.325 557.883 369.555 568.136 365.195 569.998C360.034 572.201 357.185 593.99 357.185 593.99C357.185 593.99 346.339 630.178 346.851 634.947C347.362 639.716 343.235 652.887 343.235 652.887C343.235 652.887 343.235 667.818 341.48 668.84H341.422C339.62 669.59 339.876 676.788 339.876 676.788C339.876 676.788 341.201 677.175 343.282 677.686C342.735 681.342 340.701 686.463 339.097 690.096C338.295 689.097 337.504 688.677 337.039 689.846C335.749 693.014 316.369 715.474 311.464 715.474C309.138 715.474 305.267 717.347 302.721 719.879C299.873 722.741 298.699 726.306 302.884 729.043ZM391.759 598.975C413.719 600.974 437.237 597.454 437.237 597.454C437.237 597.454 435.423 603.71 433.877 606.208C432.331 608.706 427.925 622.933 427.925 625.931C427.925 628.929 420.95 654.624 418.892 655.873C417.868 656.722 417.09 657.818 416.637 659.053C416.096 660.293 415.641 661.568 415.277 662.868C415.297 663.484 415.355 664.098 415.451 664.707C413.905 666.092 412.277 667.546 410.801 668.829C410.801 668.829 401.582 673.916 398.525 676.641C395.467 679.366 380.959 682.75 380.959 682.75C377.359 684.25 373.864 685.979 370.496 687.927C366.021 690.573 361.533 693.923 360.359 697.227C360.871 691.652 361.696 684.941 362.242 680.66C362.533 680.66 362.8 680.66 363.068 680.66C370.31 680.229 369.229 673.473 368.88 671.804C368.857 671.677 368.826 671.552 368.787 671.429C373.961 665.933 385.586 625.011 384.028 620.515C382.47 616.018 385.33 612.033 385.935 612.033C386.539 612.033 387.388 607.037 386.097 604.289C384.807 601.541 391.759 598.975 391.759 598.975ZM569.345 488.835L567.974 489.164C567.974 488.983 567.974 488.881 567.974 488.881C567.974 488.881 568.473 488.96 569.345 488.915V488.835ZM494.281 451.183C494.072 451.433 493.863 451.671 493.642 451.91L493.375 452.182V450.797L494.281 451.183ZM468.404 499.599L468.497 501.007C468.497 501.007 468.357 501.859 468.09 503.278L468.404 499.599ZM587.132 485.656L582.621 486.405C583.261 486.178 583.888 485.917 584.505 485.633C584.955 485.428 585.439 485.301 585.934 485.258C586.508 485.314 587.073 485.432 587.62 485.61C587.453 485.635 587.289 485.677 587.132 485.735V485.656Z" fill="url(#paint3_linear)"/>
<path d="M434.656 665.968C434.656 665.968 429.471 676.459 429.727 677.197C429.982 677.935 418.566 686.86 418.566 686.86L406.139 678.185L407.406 672.247C407.406 672.247 421.357 659.972 422.368 658.553C423.379 657.134 434.656 665.968 434.656 665.968Z" fill="#BE6F72"/>
<path d="M363.788 701.428C372.414 709.603 382.563 707.105 387.376 706.628C392.189 706.151 417.927 691.027 420.403 690.028C421.337 689.466 422.112 688.686 422.658 687.757C424.321 685.254 425.778 682.627 427.018 679.899C426.843 679.899 418.415 682.295 416.288 679.899C416.288 679.899 412.73 675.641 411.975 675.641C411.219 675.641 411.916 668.182 411.916 668.182C411.916 668.182 402.849 673.166 399.803 675.891C396.757 678.616 382.563 681.955 382.563 681.955C379.048 683.448 375.639 685.166 372.356 687.098C365.625 691.129 358.894 696.784 363.788 701.428Z" fill="#3F3D56"/>
<path opacity="0.1" d="M363.788 701.428C372.414 709.603 382.563 707.105 387.376 706.628C392.189 706.151 417.927 691.027 420.403 690.028C421.337 689.466 422.112 688.686 422.658 687.757C419.659 686.008 400.059 698.18 394.572 700.406C389.085 702.631 375.204 701.405 367.345 698.135C363.416 696.534 367.345 691.595 372.356 687.053C365.625 691.129 358.894 696.784 363.788 701.428Z" fill="black"/>
<path d="M364.811 675.664C364.811 675.664 361.196 702.166 362.114 705.641C363.033 709.115 339.445 693.752 339.445 693.752C339.445 693.752 347.699 677.14 345.258 673.314C342.816 669.487 364.811 675.664 364.811 675.664Z" fill="#BE6F72"/>
<path d="M342.236 676.186C342.236 676.186 356.942 680.399 365.056 679.899C372.171 679.468 371.101 672.769 370.729 671.111C370.706 670.984 370.675 670.859 370.636 670.736C375.716 665.286 387.121 624.67 385.598 620.208C384.075 615.746 386.865 611.794 387.469 611.794C388.074 611.794 388.899 606.832 387.632 604.107C386.365 601.382 393.212 598.907 393.212 598.907C414.765 600.894 437.841 597.397 437.841 597.397C437.841 597.397 436.063 603.619 434.54 606.094C433.017 608.569 428.727 622.683 428.727 625.658C428.727 628.633 421.88 654.147 419.857 655.385C418.852 656.227 418.091 657.311 417.648 658.53C417.116 659.759 416.669 661.023 416.311 662.311C417.067 678.911 436.342 672.473 439.132 670.259C439.529 669.937 439.892 669.576 440.213 669.18C441.195 667.929 441.708 666.386 441.666 664.809C441.666 664.809 466.765 639.829 463.475 629.394C460.185 618.959 471.612 618.743 471.612 618.743C471.612 618.743 489.108 611.317 491.538 606.855C493.038 604.118 506.163 598.101 516.044 593.865C522.229 591.22 527.146 589.323 527.146 589.323L523.031 574.914L519.787 563.56L513.684 561.289L494.177 554.113L459.15 549.412L455.942 549.821L421.903 554.113C421.903 554.113 372.159 567.931 367.137 570.123C362.115 572.314 359.278 593.967 359.278 593.967C359.278 593.967 348.63 629.882 349.129 634.606C349.629 639.329 345.537 652.342 345.537 652.342C345.537 652.342 345.537 667.103 343.817 668.159H343.759C341.992 668.976 342.236 676.186 342.236 676.186Z" fill="#3F3D56"/>
<path opacity="0.1" d="M393.212 598.884C414.765 600.871 437.841 597.374 437.841 597.374C439.364 592.696 460.673 579.82 460.673 579.82C443.188 575.607 393.212 598.884 393.212 598.884Z" fill="black"/>
<path d="M416.288 662.289C417.043 678.889 436.318 672.451 439.108 670.237C439.506 669.915 439.868 669.553 440.189 669.158C433.447 671.588 421.508 673.45 417.625 658.53C417.093 659.752 416.647 661.008 416.288 662.289Z" fill="#444053"/>
<path d="M342.236 676.187C342.236 676.187 356.942 680.399 365.056 679.9C372.171 679.468 371.101 672.769 370.729 671.111C363.289 670.884 350.466 670.191 343.817 668.227H343.759C341.992 668.976 342.236 676.187 342.236 676.187Z" fill="#444053"/>
<path opacity="0.1" d="M416.288 662.289C417.043 678.889 436.318 672.451 439.108 670.237C439.506 669.915 439.868 669.553 440.189 669.158C433.447 671.588 421.508 673.45 417.625 658.53C417.093 659.752 416.647 661.008 416.288 662.289Z" fill="black"/>
<path opacity="0.1" d="M342.236 676.187C342.236 676.187 356.942 680.399 365.056 679.9C372.171 679.468 371.101 672.769 370.729 671.111C363.289 670.884 350.466 670.191 343.817 668.227H343.759C341.992 668.976 342.236 676.187 342.236 676.187Z" fill="black"/>
<path d="M305.976 727.93C313.835 733.13 325.739 730.655 325.739 730.655C325.739 730.655 343.735 722.23 349.059 722.23C354.383 722.23 367.345 717.063 367.345 717.063L366.904 713.555L364.811 696.75C364.811 696.75 345.048 696.262 344.269 694.479C344.269 694.479 340.712 685.952 339.445 689.097C338.178 692.242 319.159 714.543 314.346 714.543C312.021 714.543 308.255 716.393 305.755 718.903C303.023 721.673 301.861 725.205 305.976 727.93Z" fill="#3F3D56"/>
<path opacity="0.1" d="M374.193 581.546C374.193 581.546 390.677 591.765 386.109 593.934C381.54 596.103 374.193 581.546 374.193 581.546Z" fill="black"/>
<path opacity="0.1" d="M367.346 601.121C367.346 601.121 381.54 614.281 376.216 614.633C370.891 614.985 367.346 601.121 367.346 601.121Z" fill="black"/>
<path opacity="0.1" d="M352.128 642.974C352.128 642.974 359.336 656.214 356.616 658.507C353.895 660.801 352.128 642.974 352.128 642.974Z" fill="black"/>
<path opacity="0.1" d="M431.494 656.35C428.959 658.825 455.593 648.175 449.501 647.675C443.409 647.176 431.494 656.35 431.494 656.35Z" fill="black"/>
<path d="M484.748 470.588L485.597 470.463C488.747 469.998 500.187 468.249 510.44 466.069C512.939 465.535 515.357 464.99 517.578 464.411C525.436 462.401 530.703 460.233 527.355 458.461C522.902 456.1 520.554 451.819 519.322 448.129C519.205 447.765 519.089 447.413 518.996 447.073C518.446 445.221 518.099 443.318 517.961 441.395C517.961 441.395 489.317 431.483 494.897 441.395C497.629 446.244 495.792 450.218 493.2 453C491.43 454.855 489.341 456.392 487.027 457.542L484.748 470.588Z" fill="#BE6F72"/>
<path opacity="0.1" d="M515.427 462.913C515.427 462.913 505.186 470.1 494.711 464.15C484.237 458.201 470.601 516.666 470.601 516.666L456.395 550.843C456.395 550.843 447.199 558.269 458.638 561.494C470.078 564.718 495.49 558.269 501.931 567.682C508.371 577.095 520.589 578.537 521.752 578.537C522.914 578.537 527.832 543.111 527.832 543.111L529.087 491.844L515.427 462.913Z" fill="black"/>
<path d="M459.103 559.506C470.554 562.731 495.944 556.293 502.395 565.695C505.11 569.521 508.896 572.501 513.3 574.279C516.152 575.511 519.192 576.278 522.298 576.55C522.461 576.55 522.705 575.903 522.984 574.778C524.762 567.614 528.378 541.135 528.378 541.135L529.633 489.971L517.578 464.468L515.939 460.937C514.319 461.984 512.564 462.816 510.719 463.412C508.199 464.326 505.504 464.688 502.825 464.474C500.145 464.26 497.546 463.475 495.211 462.175C492.142 460.426 488.794 464.23 485.597 470.463C477.89 485.497 471.054 514.678 471.054 514.678L456.86 548.856C456.521 549.141 456.199 549.444 455.895 549.764C453.872 551.831 450.094 556.963 459.103 559.506Z" fill="#F3F5F9"/>
<path opacity="0.1" d="M513.614 561.232C513.051 565.559 512.938 569.93 513.277 574.279C513.67 580.458 514.446 586.609 515.602 592.696C515.673 593.083 515.778 593.463 515.916 593.832C522.1 591.186 527.018 589.29 527.018 589.29L522.903 574.881C524.681 567.716 528.297 541.237 528.297 541.237L529.634 489.971L517.578 464.468C525.437 462.458 530.703 460.29 527.355 458.518C522.472 455.93 520.124 451.024 518.996 447.164C516.922 449.968 514.501 452.512 511.789 454.737L511.626 454.862L510.719 463.503L510.44 466.16L509.847 471.678C509.847 471.678 512.637 536.809 514.672 540.533C516.706 544.257 515.683 551.422 513.905 559.836C513.812 560.233 513.719 560.722 513.614 561.232Z" fill="black"/>
<path d="M514.928 558.768C513.149 567.182 514.672 581.058 516.695 591.697C518.718 602.336 540.282 595.41 544.34 591.697C548.397 587.984 560.313 586.247 560.313 586.247C560.313 586.247 560.824 537.706 564.626 531.506C566.428 528.577 566.869 519.016 566.823 509.728C566.823 501.416 566.369 493.366 566.207 490.629C566.207 489.993 566.207 489.653 566.207 489.653C566.207 489.653 582.691 462.402 582.482 460.426C582.273 458.45 577.413 458.155 577.413 458.155C577.413 458.155 559.15 444.28 556.104 446.017C553.059 447.754 544.7 443.292 544.7 443.292C544.7 443.292 534.098 444.427 531.912 442.474C531.781 442.359 531.679 442.217 531.612 442.058C531.546 441.898 531.517 441.726 531.529 441.555C531.773 438.387 520.717 431.619 520.38 431.404C529.68 439.602 514.568 452.217 512.917 453.591L512.754 453.727L510.987 470.532C510.987 470.532 513.777 535.673 515.8 539.386C517.823 543.099 516.695 550.343 514.928 558.768Z" fill="#67647E"/>
<path d="M515.904 489.244C516.604 489.244 517.171 488.69 517.171 488.006C517.171 487.323 516.604 486.769 515.904 486.769C515.205 486.769 514.637 487.323 514.637 488.006C514.637 488.69 515.205 489.244 515.904 489.244Z" fill="#444053"/>
<path opacity="0.1" d="M513.312 454.646L521.007 461.925L532.307 443.519C532.175 443.406 532.072 443.266 532.003 443.109C531.935 442.951 531.903 442.781 531.912 442.61C532.168 439.431 521.112 432.664 520.763 432.459C530.087 440.646 515.02 453.261 513.312 454.646Z" fill="black"/>
<path opacity="0.1" d="M518.438 528.872C519.138 528.872 519.705 528.317 519.705 527.634C519.705 526.95 519.138 526.396 518.438 526.396C517.738 526.396 517.171 526.95 517.171 527.634C517.171 528.317 517.738 528.872 518.438 528.872Z" fill="black"/>
<path d="M518.438 528.372C519.138 528.372 519.705 527.818 519.705 527.134C519.705 526.451 519.138 525.897 518.438 525.897C517.738 525.897 517.171 526.451 517.171 527.134C517.171 527.818 517.738 528.372 518.438 528.372Z" fill="#444053"/>
<path d="M512.8 453.636L520.508 460.925L531.796 442.519C531.665 442.405 531.562 442.262 531.496 442.103C531.429 441.943 531.401 441.771 531.412 441.6C531.656 438.432 520.601 431.664 520.264 431.449C529.575 439.658 514.509 452.273 512.8 453.636Z" fill="#67647E"/>
<path d="M506.794 523.012L520.485 523.318C521.576 523.342 522.481 522.498 522.506 521.432L523.268 488.875C523.293 487.81 522.429 486.926 521.338 486.902L507.647 486.596C506.555 486.571 505.651 487.416 505.626 488.481L504.863 521.038C504.838 522.104 505.703 522.988 506.794 523.012Z" fill="#3F3D56"/>
<path opacity="0.1" d="M506.794 523.012L520.485 523.318C521.576 523.342 522.481 522.498 522.506 521.432L523.268 488.875C523.293 487.81 522.429 486.926 521.338 486.902L507.647 486.596C506.555 486.571 505.651 487.416 505.626 488.481L504.863 521.038C504.838 522.104 505.703 522.988 506.794 523.012Z" fill="black"/>
<path d="M506.894 523.816L520.585 524.122C521.676 524.146 522.581 523.302 522.606 522.236L523.368 489.68C523.393 488.614 522.529 487.73 521.438 487.706L507.747 487.4C506.656 487.376 505.751 488.22 505.726 489.286L504.964 521.842C504.939 522.908 505.803 523.792 506.894 523.816Z" fill="#3F3D56"/>
<path d="M514.614 500.951C516.148 500.951 517.392 499.736 517.392 498.237C517.392 496.738 516.148 495.523 514.614 495.523C513.079 495.523 511.835 496.738 511.835 498.237C511.835 499.736 513.079 500.951 514.614 500.951Z" fill="#67647E"/>
<path opacity="0.1" d="M419.078 556.531C425.414 559.257 466.997 552.08 473.089 550.343C479.18 548.606 488.05 535.23 483.737 525.579C479.425 515.927 485.26 506.503 485.26 506.503C485.26 506.503 494.386 487.438 496.409 483.714C498.973 478.384 501.258 472.931 503.256 467.375C503.281 467.171 503.262 466.965 503.2 466.769C503.138 466.574 503.034 466.393 502.896 466.239C501.257 463.787 494.898 459.427 494.898 459.427C493.107 460.062 492.875 455.055 492.945 451.365C492.945 449.31 493.119 447.663 493.119 447.663C493.119 447.663 492.27 448.503 490.899 449.639C490.399 450.048 489.829 450.513 489.19 450.979C486.803 452.846 484.1 454.291 481.203 455.248C475.112 456.997 466.497 465.127 466.497 465.127L469.032 503.153C469.032 503.153 463.219 538.932 457.104 545.858C450.989 552.784 432.761 552.546 426.681 552.546C420.601 552.546 419.078 556.531 419.078 556.531Z" fill="black"/>
<path d="M418.567 555.044C424.903 557.769 466.497 550.593 472.577 548.856C478.657 547.119 487.539 533.754 483.226 524.091C478.913 514.429 484.749 505.016 484.749 505.016C484.749 505.016 493.875 485.951 495.909 482.238C497.944 478.525 502.164 467.704 502.756 465.887C502.779 465.684 502.758 465.479 502.696 465.283C502.634 465.088 502.532 464.907 502.396 464.752C500.745 462.299 494.386 457.939 494.386 457.939C492.596 458.575 492.375 453.568 492.445 449.889C492.445 447.822 492.608 446.176 492.608 446.176C492.608 446.176 491.771 447.016 490.399 448.151C489.887 448.572 489.318 449.026 488.69 449.491C486.299 451.358 483.592 452.803 480.692 453.761C474.612 455.521 465.986 463.639 465.986 463.639L468.52 501.677C468.52 501.677 462.708 537.444 456.604 544.382C450.501 551.32 432.261 551.059 426.17 551.059C420.078 551.059 418.567 555.044 418.567 555.044Z" fill="#67647E"/>
<path opacity="0.1" d="M487.539 447.198C487.539 447.198 487.771 448.503 488.178 450.502C489.538 457.314 492.828 472.155 495.153 471.587C496.839 471.167 499.687 468.26 501.896 465.74C500.245 463.287 493.886 458.927 493.886 458.927C492.096 459.563 491.875 454.555 491.945 450.876L489.899 449.151L487.539 447.198Z" fill="black"/>
<path d="M488.038 446.199C488.038 446.199 488.271 447.504 488.678 449.514C490.038 456.327 493.328 471.167 495.653 470.588C497.339 470.18 500.187 467.273 502.396 464.752C500.745 462.299 494.386 457.939 494.386 457.939C492.596 458.575 492.375 453.568 492.444 449.889L490.363 448.174L488.038 446.199Z" fill="#67647E"/>
<path d="M471.822 519.141C471.822 519.141 484.493 516.665 488.097 511.192C491.701 505.719 515.788 501.03 512.847 506.73C509.906 512.43 488.039 531.086 488.039 531.086L478.588 544.302L465.951 541.18L460.638 531.086L471.822 519.141Z" fill="#BE6F72"/>
<path opacity="0.1" d="M501.814 533.266C501.814 533.266 489.538 537.728 487.69 543.667C485.841 549.605 501.814 533.266 501.814 533.266Z" fill="black"/>
<path opacity="0.1" d="M509.348 540.192C509.348 540.192 510.51 546.38 495.072 545.869L509.348 540.192Z" fill="black"/>
<path opacity="0.1" d="M575.785 460.937L581.366 460.437C581.366 460.437 587.446 464.899 592.014 464.899C596.583 464.899 599.361 470.577 599.361 470.577C599.361 470.577 606.976 474.051 609.51 474.54C612.044 475.028 616.357 477.515 615.09 478.502C613.823 479.49 615.334 481.727 617.624 483.464C619.915 485.202 623.437 494.115 620.415 495.353C617.392 496.59 608.999 499.066 606.72 500.303C605.921 500.647 605.058 500.824 604.186 500.824C603.313 500.824 602.45 500.647 601.651 500.303C601.651 500.303 588.213 483.215 581.366 486.428C574.518 489.641 565.09 489.653 565.09 489.653L557.79 474.551L575.785 460.937Z" fill="black"/>
<path d="M459.104 542.429C459.602 543.269 460.283 543.992 461.098 544.547C461.914 545.102 462.844 545.476 463.823 545.642C468.79 546.208 473.823 545.751 478.599 544.302C478.599 544.302 453.024 536.354 477.646 517.051H471.054L468.857 516.234L469.868 511.101L471.31 464.843L465.951 463.662C465.951 463.662 461.661 494.126 460.638 497.839C459.615 501.552 458.848 515.916 458.848 515.916C458.848 515.916 457.836 521.866 456.313 524.829C455.197 527.066 455.488 537.138 459.104 542.429Z" fill="#67647E"/>
<path opacity="0.1" d="M460.138 542.429C460.639 543.269 461.322 543.992 462.139 544.548C462.957 545.103 463.889 545.476 464.869 545.642C469.833 546.207 474.862 545.751 479.633 544.303C479.633 544.303 454.058 536.354 478.692 517.051H472.089L469.891 516.234C466.264 522.536 460.58 533.652 460.138 542.429Z" fill="black"/>
<path d="M459.104 542.429C459.602 543.269 460.283 543.992 461.098 544.547C461.914 545.102 462.844 545.476 463.823 545.642C468.79 546.208 473.823 545.751 478.599 544.303C478.599 544.303 453.024 536.354 477.646 517.051H471.054L468.857 516.234C465.253 522.536 459.569 533.652 459.104 542.429Z" fill="#67647E"/>
<path opacity="0.1" d="M493.2 452.977C497.536 454.894 502.371 455.457 507.047 454.59C511.722 453.722 516.009 451.465 519.322 448.129C519.206 447.765 519.09 447.413 518.997 447.073C518.446 445.221 518.1 443.318 517.962 441.395C517.962 441.395 489.318 431.483 494.898 441.395C497.63 446.221 495.793 450.229 493.2 452.977Z" fill="black"/>
<path d="M479.68 431.46V431.676C479.68 432.414 479.68 433.129 479.808 433.845C479.878 434.527 479.983 435.205 480.122 435.877C481.115 440.735 483.719 445.138 487.531 448.405C491.342 451.672 496.15 453.622 501.21 453.953C506.27 454.284 511.301 452.977 515.525 450.235C519.749 447.494 522.93 443.469 524.577 438.784C524.728 438.352 524.879 437.91 524.995 437.467C525.552 435.511 525.834 433.49 525.832 431.46C525.832 430.938 525.832 430.416 525.774 429.905C525.351 424.084 522.632 418.65 518.191 414.747C513.749 410.844 507.931 408.776 501.96 408.977C495.988 409.179 490.33 411.634 486.175 415.828C482.02 420.021 479.692 425.625 479.68 431.46Z" fill="#BE6F72"/>
<path opacity="0.1" d="M479.68 431.676C479.806 432.392 479.849 433.119 479.808 433.845C479.806 434.224 479.825 434.603 479.866 434.98C479.912 435.274 479.998 435.56 480.122 435.832C481.052 437.966 484.098 439.352 486.098 437.978C486.87 437.368 487.487 436.59 487.899 435.707C490.038 431.835 493.003 427.384 497.665 427.304C499.652 427.304 501.524 428.088 503.477 428.576C505.43 429.064 507.686 429.11 509.127 427.827C510.22 426.85 510.743 425.17 512.231 424.818C513.719 424.466 515.067 425.806 515.718 427.089C516.37 428.372 516.939 429.916 518.311 430.586C518.927 430.881 519.636 430.961 520.241 431.278C522.996 432.755 521.729 437.921 524.589 438.761C524.68 438.789 524.773 438.812 524.868 438.829L525.007 437.444C525.263 434.923 525.53 432.414 525.786 429.882C525.362 424.061 522.644 418.627 518.202 414.724C513.761 410.821 507.942 408.753 501.971 408.954C496 409.156 490.342 411.612 486.187 415.805C482.031 419.998 479.703 425.602 479.692 431.437L479.68 431.676Z" fill="black"/>
<path d="M520.671 397.817C523.38 398.952 526.205 400.667 526.809 403.369C526.957 404.575 526.999 405.79 526.937 407.003C527.065 409.444 528.263 411.704 529.018 414.043C529.774 416.382 530.053 419.107 528.53 421.094C528.053 421.718 527.426 422.229 526.995 422.888C526.439 423.898 526.136 425.023 526.112 426.169L524.856 438.353C521.636 437.774 523.066 432.324 520.206 430.802C519.613 430.484 518.904 430.405 518.288 430.109C516.916 429.439 516.382 427.907 515.696 426.612C515.01 425.318 513.685 423.989 512.208 424.341C510.732 424.693 510.209 426.362 509.116 427.35C507.674 428.622 505.384 428.565 503.466 428.088C501.548 427.611 499.676 426.794 497.653 426.817C493.003 426.896 490.016 431.358 487.888 435.219C487.479 436.104 486.862 436.882 486.086 437.49C483.831 439.045 480.274 437.092 479.855 434.492C479.646 433.039 480.099 431.415 479.251 430.189C478.402 428.963 476.53 428.69 475.077 428.031C471.369 426.362 470.218 421.843 470.834 418.051C471.276 415.326 472.392 412.51 471.485 409.887C471.171 408.978 470.625 408.15 470.323 407.241C469.509 404.686 470.834 401.87 472.927 400.065C475.161 398.357 477.722 397.102 480.46 396.375C487.377 394.104 494.631 391.924 501.99 391.458C505.21 391.254 509.441 390.266 511.999 392.23C515.033 394.592 516.916 396.261 520.671 397.817Z" fill="#3F3D56"/>
<path opacity="0.1" d="M514.637 469.668C515.337 469.668 515.904 469.114 515.904 468.431C515.904 467.747 515.337 467.193 514.637 467.193C513.937 467.193 513.37 467.747 513.37 468.431C513.37 469.114 513.937 469.668 514.637 469.668Z" fill="black"/>
<path d="M514.637 469.18C515.337 469.18 515.904 468.626 515.904 467.943C515.904 467.259 515.337 466.705 514.637 466.705C513.937 466.705 513.37 467.259 513.37 467.943C513.37 468.626 513.937 469.18 514.637 469.18Z" fill="#444053"/>
<path opacity="0.1" d="M522.752 547.436C523.452 547.436 524.019 546.882 524.019 546.199C524.019 545.515 523.452 544.961 522.752 544.961C522.052 544.961 521.485 545.515 521.485 546.199C521.485 546.882 522.052 547.436 522.752 547.436Z" fill="black"/>
<path d="M522.752 546.948C523.452 546.948 524.019 546.394 524.019 545.71C524.019 545.027 523.452 544.473 522.752 544.473C522.052 544.473 521.485 545.027 521.485 545.71C521.485 546.394 522.052 546.948 522.752 546.948Z" fill="#444053"/>
<path opacity="0.1" d="M518.438 568C519.138 568 519.705 567.446 519.705 566.762C519.705 566.079 519.138 565.525 518.438 565.525C517.738 565.525 517.171 566.079 517.171 566.762C517.171 567.446 517.738 568 518.438 568Z" fill="black"/>
<path d="M518.438 567.5C519.138 567.5 519.705 566.946 519.705 566.263C519.705 565.579 519.138 565.025 518.438 565.025C517.738 565.025 517.171 565.579 517.171 566.263C517.171 566.946 517.738 567.5 518.438 567.5Z" fill="#444053"/>
<path opacity="0.1" d="M474.856 488.006C474.856 488.006 472.066 506.503 474.856 509.727C477.646 512.952 474.856 488.006 474.856 488.006Z" fill="black"/>
<path opacity="0.1" d="M557.79 522.354C557.79 522.354 563.115 533.561 557.79 544.303C552.466 555.044 549.164 559.416 550.943 566.274C552.722 573.132 557.79 522.354 557.79 522.354Z" fill="black"/>
<path opacity="0.1" d="M305.977 727.93C313.835 733.13 325.739 730.655 325.739 730.655C325.739 730.655 343.735 722.229 349.06 722.229C354.384 722.229 367.346 717.063 367.346 717.063L366.904 713.555C361.65 714.542 349.711 716.904 348.304 718.096C346.525 719.584 324.716 726.771 324.716 726.771C324.716 726.771 309.871 724.955 305.732 718.993C303.024 721.673 301.861 725.204 305.977 727.93Z" fill="black"/>
<g opacity="0.1">
<path opacity="0.1" d="M526.936 405.015C526.936 404.754 526.936 404.482 526.936 404.209C526.936 404.516 526.936 404.834 526.936 405.14C526.941 405.099 526.941 405.057 526.936 405.015Z" fill="black"/>
<path opacity="0.1" d="M475.087 426.09C476.54 426.737 478.377 426.975 479.261 428.236C480.144 429.496 479.656 431.086 479.865 432.539C480.261 435.139 483.841 437.081 486.096 435.548C486.871 434.939 487.488 434.161 487.898 433.277C490.026 429.416 493.002 424.965 497.663 424.886C499.651 424.886 501.523 425.669 503.476 426.146C505.429 426.623 507.684 426.691 509.126 425.408C510.219 424.432 510.742 422.751 512.218 422.399C513.695 422.047 515.066 423.376 515.706 424.67C516.345 425.965 516.926 427.486 518.298 428.156C518.914 428.451 519.623 428.542 520.216 428.86C523.064 430.382 521.635 435.82 524.866 436.411L526.122 424.216C526.148 423.069 526.45 421.945 527.005 420.935C527.436 420.287 528.063 419.799 528.54 419.152C529.114 418.381 529.47 417.477 529.575 416.529C529.853 418.135 529.482 419.784 528.54 421.128C528.063 421.752 527.436 422.263 527.005 422.922C526.449 423.932 526.146 425.056 526.122 426.203L524.866 438.387C521.646 437.808 523.076 432.357 520.216 430.836C519.623 430.518 518.914 430.438 518.298 430.143C516.926 429.473 516.392 427.94 515.706 426.646C515.02 425.351 513.695 424.023 512.218 424.375C510.742 424.727 510.219 426.396 509.126 427.384C507.684 428.656 505.394 428.599 503.476 428.122C501.558 427.645 499.686 426.828 497.663 426.85C493.013 426.93 490.026 431.392 487.898 435.253C487.489 436.138 486.872 436.916 486.096 437.524C483.841 439.079 480.284 437.126 479.865 434.526C479.656 433.073 480.109 431.449 479.261 430.223C478.412 428.996 476.54 428.724 475.087 428.065C471.693 426.544 470.437 422.626 470.728 419.072C470.984 422.013 472.321 424.841 475.087 426.09Z" fill="black"/>
<path opacity="0.1" d="M470.344 405.288C470.635 406.196 471.181 407.025 471.507 407.933C471.834 408.988 471.933 410.098 471.798 411.192C471.741 410.761 471.644 410.335 471.507 409.921C471.193 409.012 470.647 408.183 470.344 407.275C470.086 406.436 470.034 405.549 470.193 404.686C470.24 404.89 470.286 405.083 470.344 405.288Z" fill="black"/>
</g>
<path opacity="0.1" d="M544.851 515.416C550.664 514.167 564.37 510.216 564.37 510.216L566.823 509.739C566.823 501.427 566.369 493.377 566.207 490.641C566.207 490.641 554.581 494.353 551.756 496.318C548.932 498.282 540.34 497.805 540.34 497.805C540.34 497.805 526.902 498.543 515.742 510.681C504.581 522.82 539.015 516.665 544.851 515.416Z" fill="black"/>
<path d="M601.838 493.309C602.36 493.54 602.814 493.897 603.157 494.346C603.5 494.795 603.719 495.322 603.796 495.878C603.873 496.433 603.804 496.998 603.596 497.52C603.387 498.042 603.046 498.503 602.605 498.861C599.513 501.359 595.002 504.346 590.701 504.777C583.517 505.481 566.288 508.865 564.509 509.205C564.418 509.218 564.328 509.241 564.242 509.274C562.812 509.682 550.292 513.248 544.851 514.417C539.039 515.666 504.523 521.866 515.684 509.728C521.957 502.692 530.632 498.121 540.096 496.863H540.538C541.84 496.931 549.211 497.17 551.757 495.375C553.079 494.561 554.481 493.876 555.942 493.332C561.457 491.11 567.208 489.491 573.089 488.506L585.016 486.473C585.697 486.355 586.398 486.443 587.027 486.723L601.838 493.309Z" fill="#BE6F72"/>
<path d="M576.797 460.937L582.377 460.437C582.377 460.437 588.457 464.9 593.026 464.9C597.594 464.9 600.384 470.577 600.384 470.577C600.384 470.577 607.987 474.051 610.522 474.54C613.056 475.028 617.369 477.515 616.102 478.502C614.834 479.49 616.357 481.727 618.636 483.464C620.915 485.202 624.449 494.115 621.426 495.353C618.403 496.59 610.01 499.054 607.778 500.315C606.979 500.658 606.116 500.835 605.244 500.835C604.371 500.835 603.508 500.658 602.709 500.315C602.709 500.315 589.178 483.226 582.377 486.439C575.576 489.653 566.102 489.664 566.102 489.664L558.743 474.551L576.797 460.937Z" fill="#67647E"/>
<path opacity="0.1" d="M701.304 900C996.318 900 1235.47 888.32 1235.47 873.913C1235.47 859.506 996.318 847.826 701.304 847.826C406.289 847.826 167.133 859.506 167.133 873.913C167.133 888.32 406.289 900 701.304 900Z" fill="#1E0E62"/>
<path d="M1047.14 554.404C1047.78 549.39 1041.85 543.21 1039.78 541.025L979.558 533.802C981.54 532.699 977.921 532.251 979.558 533.802L918.403 526.466C915.838 528.083 910.122 532.441 909.48 537.457L909.413 537.449L900.62 606.11L900.236 609.168C899.981 611.154 900.545 613.158 901.803 614.738C903.061 616.318 904.911 617.346 906.945 617.593L909.966 617.956L968.084 625.055L1029.22 632.524C1031.25 632.773 1033.31 632.222 1034.92 630.993C1036.54 629.764 1037.59 627.958 1037.85 625.972L1047.01 554.379L1047.14 554.404Z" fill="url(#paint4_linear)"/>
<path d="M910.873 537.492L1045.64 553.961L1037.38 618.405C1036.45 625.702 1029.7 630.886 1022.32 629.985L914.065 616.756C910.581 616.331 907.414 614.555 905.263 611.821C903.111 609.086 902.15 605.617 902.59 602.176L910.873 537.492Z" fill="#6963AF"/>
<path d="M981.915 535.439L920.06 528.02C917.551 529.575 911.201 533.764 910.582 538.599L1045.48 555.197C1046.1 550.362 1041.13 544.406 1039.09 542.295L981.915 535.439C980.301 533.944 983.858 534.38 981.915 535.439Z" fill="#6963AF"/>
<path d="M910.748 537.929L902.2 604.697C901.476 610.358 905.586 615.521 911.381 616.233L1025.57 630.172" fill="#555187"/>
<path d="M1045.58 554.367L1037.01 621.332C1036.28 627.01 1031.05 631.044 1025.33 630.345L912.564 616.568" fill="#555187"/>
<path opacity="0.5" d="M1005.1 584.542C1002.99 601.365 987.311 613.329 970.087 611.264C952.862 609.198 940.614 593.885 942.729 577.062C944.843 560.238 960.521 548.274 977.745 550.34C994.97 552.406 1007.22 567.718 1005.1 584.542ZM987.842 578.067C988.971 574.087 986.082 571.529 981.948 569.558L984.034 564.23L980.7 562.989L978.663 568.172C977.791 567.845 976.892 567.54 975.998 567.214L978.049 561.995L974.732 560.756L972.639 566.075C971.913 565.82 971.205 565.567 970.518 565.312L965.944 563.595L964.583 567.055C964.583 567.055 967.056 567.928 966.992 567.958C968.336 568.463 968.472 569.397 968.342 570.091L965.957 576.157C966.075 576.201 966.189 576.252 966.299 576.311L965.95 576.181L962.61 584.675C962.471 584.972 962.218 585.204 961.904 585.318C961.592 585.431 961.245 585.418 960.941 585.282C960.969 585.336 958.528 584.379 958.528 584.379L956.351 588.002L960.667 589.621C961.489 589.926 962.256 590.231 963.028 590.526L960.913 595.909L964.226 597.148L966.321 591.821C967.198 592.169 968.077 592.509 968.96 592.839L966.873 598.142L970.19 599.38L972.303 594.005C978.002 595.782 982.449 595.873 984.941 590.943C986.95 586.98 985.692 584.392 982.814 582.461C985.112 582.224 986.979 580.994 987.802 578.079L987.842 578.067ZM978.678 587.838C977.102 591.853 970.226 588.758 967.978 587.921L970.781 580.787C973.02 581.632 980.32 583.642 978.67 587.837L978.678 587.838ZM981.091 577.198C979.65 580.859 973.939 578.224 972.064 577.524L974.599 571.056C976.469 571.755 982.583 573.379 981.066 577.195L981.091 577.198Z" fill="#F7931A"/>
<g opacity="0.5">
<path opacity="0.5" d="M184.938 400.767V479.689H312.245C312.245 479.689 321.643 497.755 337.801 503.008C337.801 503.008 332.644 490.212 338.028 479.689H373.469V400.767H184.938Z" fill="url(#paint5_linear)"/>
</g>
<path d="M190.034 403.471V478.124H317.42C317.42 478.124 317.42 493.054 332.706 498.031C332.706 498.031 327.611 488.077 332.706 478.124H368.374V403.471H190.034Z" fill="white"/>
<path d="M227.924 429.167C225.023 429.167 222.188 430.007 219.777 431.58C217.366 433.154 215.486 435.391 214.376 438.008C213.266 440.625 212.976 443.505 213.542 446.283C214.108 449.061 215.504 451.613 217.555 453.616C219.606 455.619 222.219 456.983 225.063 457.536C227.907 458.089 230.856 457.805 233.535 456.721C236.215 455.637 238.505 453.801 240.116 451.446C241.727 449.091 242.587 446.322 242.587 443.489C242.587 441.608 242.208 439.746 241.471 438.008C240.734 436.27 239.654 434.691 238.292 433.362C236.931 432.032 235.314 430.977 233.535 430.257C231.756 429.537 229.849 429.167 227.924 429.167ZM230.554 443.833V450.615H225.37V443.833C224.653 443.303 224.124 442.566 223.859 441.726C223.593 440.886 223.604 439.986 223.891 439.153C224.177 438.32 224.724 437.596 225.455 437.083C226.185 436.57 227.062 436.294 227.962 436.294C228.861 436.294 229.738 436.57 230.469 437.083C231.199 437.596 231.746 438.32 232.033 439.153C232.319 439.986 232.33 440.886 232.065 441.726C231.8 442.566 231.271 443.303 230.554 443.833Z" fill="#4285F4"/>
<path opacity="0.2" d="M227.924 429.167C225.023 429.167 222.188 430.007 219.777 431.58C217.366 433.154 215.486 435.391 214.376 438.008C213.266 440.625 212.976 443.505 213.542 446.283C214.108 449.061 215.504 451.613 217.555 453.616C219.606 455.619 222.219 456.983 225.063 457.536C227.907 458.089 230.856 457.805 233.535 456.721C236.215 455.637 238.505 453.801 240.116 451.446C241.727 449.091 242.587 446.322 242.587 443.489C242.587 441.608 242.208 439.746 241.471 438.008C240.734 436.27 239.654 434.691 238.292 433.362C236.931 432.032 235.314 430.977 233.535 430.257C231.756 429.537 229.849 429.167 227.924 429.167ZM230.554 443.833V450.615H225.37V443.833C224.653 443.303 224.124 442.566 223.859 441.726C223.593 440.886 223.604 439.986 223.891 439.153C224.177 438.32 224.724 437.596 225.455 437.083C226.185 436.57 227.062 436.294 227.962 436.294C228.861 436.294 229.738 436.57 230.469 437.083C231.199 437.596 231.746 438.32 232.033 439.153C232.319 439.986 232.33 440.886 232.065 441.726C231.8 442.566 231.271 443.303 230.554 443.833Z" fill="black"/>
<path d="M227.924 425.074C224.195 425.074 220.55 426.154 217.449 428.178C214.349 430.201 211.932 433.077 210.506 436.442C209.079 439.806 208.705 443.509 209.433 447.081C210.16 450.653 211.956 453.934 214.592 456.509C217.229 459.085 220.588 460.838 224.245 461.549C227.903 462.26 231.693 461.895 235.138 460.501C238.583 459.107 241.528 456.747 243.599 453.719C245.671 450.691 246.777 447.131 246.777 443.489C246.777 438.605 244.79 433.921 241.255 430.468C237.719 427.014 232.924 425.074 227.924 425.074ZM231.304 443.931V452.649H224.639V443.931C223.716 443.249 223.036 442.301 222.694 441.222C222.353 440.142 222.367 438.985 222.736 437.913C223.104 436.842 223.807 435.91 224.747 435.251C225.686 434.591 226.814 434.236 227.971 434.236C229.128 434.236 230.256 434.591 231.195 435.251C232.135 435.91 232.838 436.842 233.207 437.913C233.575 438.985 233.589 440.142 233.248 441.222C232.906 442.301 232.226 443.249 231.304 443.931Z" fill="#55488E"/>
<path d="M350.879 428.389H256.161V457.852H350.879V428.389Z" fill="#E0DDEE"/>
<path d="M281.55 443.07H276.413L280.982 438.616C281.064 438.534 281.11 438.424 281.11 438.309C281.11 438.194 281.064 438.084 280.982 438.001C280.941 437.96 280.892 437.928 280.838 437.906C280.784 437.884 280.726 437.873 280.667 437.873C280.609 437.873 280.551 437.884 280.497 437.906C280.443 437.928 280.393 437.96 280.352 438.001L275.783 442.464V437.438C275.783 437.323 275.736 437.213 275.653 437.131C275.57 437.05 275.457 437.005 275.34 437.005C275.223 437.007 275.111 437.053 275.028 437.134C274.946 437.215 274.898 437.324 274.896 437.438V442.464L270.336 437.975C270.294 437.934 270.245 437.902 270.191 437.88C270.137 437.858 270.079 437.847 270.021 437.847C269.962 437.847 269.904 437.858 269.85 437.88C269.796 437.902 269.747 437.934 269.706 437.975C269.624 438.058 269.578 438.168 269.578 438.283C269.578 438.398 269.624 438.508 269.706 438.59L274.275 443.044H269.129C269.012 443.047 268.901 443.093 268.818 443.174C268.735 443.255 268.688 443.363 268.686 443.478C268.686 443.593 268.732 443.703 268.815 443.784C268.899 443.865 269.011 443.911 269.129 443.911H274.275L269.706 448.374C269.624 448.456 269.578 448.567 269.578 448.681C269.578 448.796 269.624 448.907 269.706 448.989C269.791 449.067 269.904 449.11 270.021 449.11C270.138 449.11 270.25 449.067 270.336 448.989L274.896 444.526V449.544C274.896 449.658 274.943 449.769 275.026 449.85C275.109 449.931 275.222 449.977 275.34 449.977C275.457 449.977 275.57 449.931 275.653 449.85C275.736 449.769 275.783 449.658 275.783 449.544V444.526L280.352 448.989C280.438 449.067 280.55 449.11 280.667 449.11C280.784 449.11 280.897 449.067 280.982 448.989C281.064 448.907 281.11 448.796 281.11 448.681C281.11 448.567 281.064 448.456 280.982 448.374L276.413 443.911H281.55C281.668 443.911 281.78 443.865 281.864 443.784C281.947 443.703 281.994 443.593 281.994 443.478C281.987 443.367 281.937 443.264 281.855 443.188C281.772 443.112 281.663 443.07 281.55 443.07Z" fill="#1E0E62"/>
<path d="M300.181 443.07H295.044L299.613 438.616C299.695 438.534 299.741 438.424 299.741 438.309C299.741 438.194 299.695 438.084 299.613 438.001C299.572 437.96 299.523 437.928 299.469 437.906C299.415 437.884 299.357 437.873 299.298 437.873C299.24 437.873 299.182 437.884 299.128 437.906C299.074 437.928 299.025 437.96 298.983 438.001L294.414 442.464V437.438C294.414 437.323 294.368 437.213 294.284 437.131C294.201 437.05 294.088 437.005 293.971 437.005C293.854 437.007 293.742 437.053 293.66 437.134C293.577 437.215 293.529 437.324 293.527 437.438V442.464L288.967 437.975C288.926 437.934 288.877 437.902 288.823 437.88C288.769 437.858 288.711 437.847 288.652 437.847C288.593 437.847 288.535 437.858 288.481 437.88C288.427 437.902 288.378 437.934 288.337 437.975C288.255 438.058 288.209 438.168 288.209 438.283C288.209 438.398 288.255 438.508 288.337 438.59L292.906 443.044H287.76C287.643 443.047 287.532 443.093 287.449 443.174C287.366 443.255 287.319 443.363 287.317 443.478C287.317 443.593 287.363 443.703 287.447 443.784C287.53 443.865 287.643 443.911 287.76 443.911H292.906L288.337 448.374C288.255 448.456 288.209 448.567 288.209 448.681C288.209 448.796 288.255 448.907 288.337 448.989C288.422 449.067 288.535 449.11 288.652 449.11C288.769 449.11 288.882 449.067 288.967 448.989L293.527 444.526V449.544C293.527 449.658 293.574 449.769 293.657 449.85C293.74 449.931 293.853 449.977 293.971 449.977C294.088 449.977 294.201 449.931 294.284 449.85C294.368 449.769 294.414 449.658 294.414 449.544V444.526L298.983 448.989C299.069 449.067 299.182 449.11 299.298 449.11C299.415 449.11 299.528 449.067 299.613 448.989C299.695 448.907 299.741 448.796 299.741 448.681C299.741 448.567 299.695 448.456 299.613 448.374L295.044 443.911H300.181C300.299 443.911 300.412 443.865 300.495 443.784C300.578 443.703 300.625 443.593 300.625 443.478C300.618 443.367 300.568 443.264 300.486 443.188C300.403 443.112 300.294 443.07 300.181 443.07Z" fill="#1E0E62"/>
<path d="M318.813 443.07H313.676L318.245 438.616C318.327 438.534 318.372 438.424 318.372 438.309C318.372 438.194 318.327 438.084 318.245 438.001C318.204 437.96 318.155 437.928 318.1 437.906C318.046 437.884 317.988 437.873 317.93 437.873C317.871 437.873 317.813 437.884 317.759 437.906C317.705 437.928 317.656 437.96 317.615 438.001L313.046 442.464V437.438C313.046 437.323 312.999 437.213 312.916 437.131C312.833 437.05 312.72 437.005 312.602 437.005C312.485 437.007 312.374 437.053 312.291 437.134C312.208 437.215 312.161 437.324 312.159 437.438V442.464L307.598 437.975C307.557 437.934 307.508 437.902 307.454 437.88C307.4 437.858 307.342 437.847 307.283 437.847C307.225 437.847 307.167 437.858 307.113 437.88C307.059 437.902 307.01 437.934 306.968 437.975C306.887 438.058 306.841 438.168 306.841 438.283C306.841 438.398 306.887 438.508 306.968 438.59L311.538 443.044H306.392C306.275 443.047 306.163 443.093 306.081 443.174C305.998 443.255 305.951 443.363 305.948 443.478C305.948 443.593 305.995 443.703 306.078 443.784C306.161 443.865 306.274 443.911 306.392 443.911H311.538L306.968 448.374C306.887 448.456 306.841 448.567 306.841 448.681C306.841 448.796 306.887 448.907 306.968 448.989C307.054 449.067 307.166 449.11 307.283 449.11C307.4 449.11 307.513 449.067 307.598 448.989L312.159 444.526V449.544C312.159 449.658 312.205 449.769 312.289 449.85C312.372 449.931 312.485 449.977 312.602 449.977C312.72 449.977 312.833 449.931 312.916 449.85C312.999 449.769 313.046 449.658 313.046 449.544V444.526L317.615 448.989C317.7 449.067 317.813 449.11 317.93 449.11C318.047 449.11 318.159 449.067 318.245 448.989C318.327 448.907 318.372 448.796 318.372 448.681C318.372 448.567 318.327 448.456 318.245 448.374L313.676 443.911H318.813C318.93 443.911 319.043 443.865 319.126 443.784C319.209 443.703 319.256 443.593 319.256 443.478C319.249 443.367 319.2 443.264 319.117 443.188C319.035 443.112 318.926 443.07 318.813 443.07Z" fill="#1E0E62"/>
<path d="M337.444 443.07H332.307L336.876 438.616C336.958 438.534 337.004 438.424 337.004 438.309C337.004 438.194 336.958 438.084 336.876 438.001C336.835 437.96 336.786 437.928 336.732 437.906C336.678 437.884 336.62 437.873 336.561 437.873C336.502 437.873 336.444 437.884 336.39 437.906C336.336 437.928 336.287 437.96 336.246 438.001L331.677 442.464V437.438C331.677 437.323 331.63 437.213 331.547 437.131C331.464 437.05 331.351 437.005 331.233 437.005C331.116 437.007 331.005 437.053 330.922 437.134C330.839 437.215 330.792 437.324 330.79 437.438V442.464L326.23 437.975C326.188 437.934 326.139 437.902 326.085 437.88C326.031 437.858 325.973 437.847 325.915 437.847C325.856 437.847 325.798 437.858 325.744 437.88C325.69 437.902 325.641 437.934 325.6 437.975C325.518 438.058 325.472 438.168 325.472 438.283C325.472 438.398 325.518 438.508 325.6 438.59L330.169 443.044H325.023C324.906 443.047 324.794 443.093 324.712 443.174C324.629 443.255 324.582 443.363 324.579 443.478C324.579 443.593 324.626 443.703 324.709 443.784C324.792 443.865 324.905 443.911 325.023 443.911H330.169L325.6 448.374C325.518 448.456 325.472 448.567 325.472 448.681C325.472 448.796 325.518 448.907 325.6 448.989C325.685 449.067 325.798 449.11 325.915 449.11C326.031 449.11 326.144 449.067 326.23 448.989L330.79 444.526V449.544C330.79 449.658 330.837 449.769 330.92 449.85C331.003 449.931 331.116 449.977 331.233 449.977C331.351 449.977 331.464 449.931 331.547 449.85C331.63 449.769 331.677 449.658 331.677 449.544V444.526L336.246 448.989C336.332 449.067 336.444 449.11 336.561 449.11C336.678 449.11 336.791 449.067 336.876 448.989C336.958 448.907 337.004 448.796 337.004 448.681C337.004 448.567 336.958 448.456 336.876 448.374L332.307 443.911H337.444C337.561 443.911 337.674 443.865 337.757 443.784C337.841 443.703 337.887 443.593 337.887 443.478C337.881 443.367 337.831 443.264 337.748 443.188C337.666 443.112 337.557 443.07 337.444 443.07Z" fill="#1E0E62"/>
<defs>
<linearGradient id="paint0_linear" x1="-38886.2" y1="77887.8" x2="-46608.5" y2="77196.1" gradientUnits="userSpaceOnUse">
<stop stop-color="#808080" stop-opacity="0.25"/>
<stop offset="0.54" stop-color="#808080" stop-opacity="0.12"/>
<stop offset="1" stop-color="#808080" stop-opacity="0.1"/>
</linearGradient>
<linearGradient id="paint1_linear" x1="-20818.8" y1="106026" x2="-21527.3" y2="105963" gradientUnits="userSpaceOnUse">
<stop stop-color="#808080" stop-opacity="0.25"/>
<stop offset="0.54" stop-color="#808080" stop-opacity="0.12"/>
<stop offset="1" stop-color="#808080" stop-opacity="0.1"/>
</linearGradient>
<linearGradient id="paint2_linear" x1="-20156.3" y1="74913.4" x2="-20816.5" y2="74854.3" gradientUnits="userSpaceOnUse">
<stop stop-color="#808080" stop-opacity="0.25"/>
<stop offset="0.54" stop-color="#808080" stop-opacity="0.12"/>
<stop offset="1" stop-color="#808080" stop-opacity="0.1"/>
</linearGradient>
<linearGradient id="paint3_linear" x1="325372" y1="161364" x2="325372" y2="57858.1" gradientUnits="userSpaceOnUse">
<stop stop-color="#808080" stop-opacity="0.25"/>
<stop offset="0.54" stop-color="#808080" stop-opacity="0.12"/>
<stop offset="1" stop-color="#808080" stop-opacity="0.1"/>
</linearGradient>
<linearGradient id="paint4_linear" x1="968.223" y1="625.217" x2="984.332" y2="490.92" gradientUnits="userSpaceOnUse">
<stop stop-color="#808080" stop-opacity="0.25"/>
<stop offset="0.54" stop-color="#808080" stop-opacity="0.12"/>
<stop offset="1" stop-color="#808080" stop-opacity="0.1"/>
</linearGradient>
<linearGradient id="paint5_linear" x1="71166.9" y1="44108.8" x2="71166.9" y2="25205.4" gradientUnits="userSpaceOnUse">
<stop stop-color="#808080" stop-opacity="0.25"/>
<stop offset="0.54" stop-color="#808080" stop-opacity="0.12"/>
<stop offset="1" stop-color="#808080" stop-opacity="0.1"/>
</linearGradient>
</defs>
</svg>
